<svg width="50" height="50" viewBox="0 0 50 50" fill="none" xmlns="http://www.w3.org/2000/svg">
<rect width="50" height="50" rx="5" fill="#212121"/>
<g clip-path="url(#clip0_77_275)">
<path d="M36.0001 17C36.0001 17.5304 35.7894 18.0391 35.4143 18.4142C35.0393 18.7893 34.5306 19 34.0001 19H16.0001C15.4697 19 14.961 18.7893 14.5859 18.4142C14.2108 18.0391 14.0001 17.5304 14.0001 17C14.0001 16.4696 14.2108 15.9609 14.5859 15.5858C14.961 15.2107 15.4697 15 16.0001 15H17.1841C17.3902 14.4171 17.7714 13.9121 18.2754 13.5541C18.7795 13.1961 19.3819 13.0026 20.0001 13H30.0001C30.6184 13.0026 31.2208 13.1961 31.7248 13.5541C32.2289 13.9121 32.61 14.4171 32.8161 15H34.0001C34.5306 15 35.0393 15.2107 35.4143 15.5858C35.7894 15.9609 36.0001 16.4696 36.0001 17ZM23.0001 29C23.1051 32.954 26.8951 32.953 27.0001 29C26.9001 25.046 23.1051 25.047 23.0001 29ZM21.0811 28C21.9731 22.713 28.0291 22.716 28.9191 28H34.0071L34.7421 22.124C34.7597 21.9833 34.7472 21.8405 34.7054 21.7051C34.6635 21.5696 34.5934 21.4446 34.4996 21.3383C34.4058 21.232 34.2905 21.1469 34.1612 21.0885C34.032 21.0302 33.8919 21 33.7501 21H16.2501C16.1084 21 15.9682 21.0302 15.839 21.0885C15.7098 21.1469 15.5945 21.232 15.5006 21.3383C15.4068 21.4446 15.3367 21.5696 15.2949 21.7051C15.2531 21.8405 15.2405 21.9833 15.2581 22.124L15.9921 28H21.0811ZM28.9191 30C28.0271 35.287 21.9721 35.284 21.0811 30H16.2421L16.5701 32.62C16.7229 33.8285 17.3109 34.94 18.2241 35.7462C19.1372 36.5524 20.313 36.9982 21.5311 37H28.4691C29.6873 36.9982 30.863 36.5524 31.7762 35.7462C32.6894 34.94 33.2774 33.8285 33.4301 32.62L33.7571 30H28.9191Z" fill="#CAF05F"/>
</g>
<defs>
<clipPath id="clip0_77_275">
<rect width="24" height="24" fill="white" transform="translate(13 13)"/>
</clipPath>
</defs>
</svg>
